<svg width="651" height="576" viewBox="0 0 651 576" fill="none" xmlns="http://www.w3.org/2000/svg">
<path d="M325.018 575.5C322.88 575.501 320.777 574.952 318.912 573.906C262.33 540.761 209.228 502.007 160.406 458.229C53.9795 362.446 0.0183105 267.322 0.0183105 175.5C0.027197 137.246 12.5677 100.048 35.7213 69.5961C58.8749 39.1446 91.3668 17.1164 128.226 6.88143C165.086 -3.35357 204.284 -1.23183 239.823 12.9221C275.363 27.076 305.287 52.4827 325.018 85.2555C344.75 52.4827 374.674 27.076 410.213 12.9221C445.753 -1.23183 484.951 -3.35357 521.81 6.88143C558.67 17.1164 591.162 39.1446 614.315 69.5961C637.469 100.048 650.009 137.246 650.018 175.5C650.018 267.322 596.057 362.446 489.63 458.229C440.809 502.007 387.706 540.761 331.125 573.906C329.26 574.952 327.157 575.501 325.018 575.5ZM175.018 25.5C135.25 25.5447 97.1224 41.3625 69.0016 69.4833C40.8808 97.6041 25.063 135.731 25.0183 175.5C25.0183 362.066 281.818 522.817 325.018 548.527C368.219 522.817 625.018 362.066 625.018 175.5C625.012 140.83 612.998 107.233 591.02 80.4197C569.041 53.6066 538.455 35.233 504.46 28.4228C470.466 21.6126 435.162 26.7862 404.551 43.0638C373.94 59.3415 349.912 85.7185 336.551 117.71C335.6 119.985 333.998 121.928 331.946 123.295C329.894 124.662 327.484 125.391 325.018 125.391C322.553 125.391 320.142 124.662 318.09 123.295C316.038 121.928 314.436 119.985 313.486 117.71C302.114 90.3683 282.888 67.0132 258.24 50.5995C233.593 34.1859 204.631 25.451 175.018 25.5Z" fill="black"/>
</svg>
