<svg width="663" height="632" viewBox="0 0 663 632" fill="none" xmlns="http://www.w3.org/2000/svg">
<path d="M339.108 15.7771L404.947 218.408C408.696 229.945 419.447 237.756 431.577 237.756H644.636C652.386 237.756 655.608 247.673 649.338 252.228L476.97 377.461C467.156 384.591 463.05 397.229 466.798 408.766L532.637 611.397C535.032 618.768 526.596 624.897 520.326 620.342L347.958 495.109C338.144 487.979 324.856 487.979 315.042 495.109L142.674 620.342C136.404 624.897 127.968 618.768 130.363 611.397L196.202 408.766C199.95 397.229 195.844 384.591 186.03 377.461L13.6616 252.228C7.39193 247.673 10.6141 237.756 18.3639 237.756H231.423C243.553 237.756 254.304 229.945 258.053 218.408L323.892 15.7771C326.286 8.40659 336.714 8.40662 339.108 15.7771Z" stroke="black" stroke-width="20"/>
</svg>
