<svg width="632" height="601" viewBox="0 0 632 601" fill="none" xmlns="http://www.w3.org/2000/svg">
<path d="M629.983 581.718C604.923 538.564 571.261 501.021 531.086 471.42C490.911 441.819 445.081 420.791 396.44 409.642C442.02 391 479.711 357.107 503.071 313.756C526.43 270.404 534.008 220.285 524.509 171.965C515.01 123.645 489.024 80.1243 450.992 48.8411C412.961 17.558 365.245 0.454712 316 0.454712C266.755 0.454712 219.039 17.558 181.007 48.8411C142.976 80.1243 116.99 123.645 107.491 171.965C97.9918 220.285 105.57 270.404 128.929 313.756C152.289 357.107 189.98 391 235.56 409.642C186.921 420.79 141.091 441.817 100.917 471.417C60.7432 501.017 27.0814 538.558 2.02145 581.71C1.19742 583.131 0.661529 584.701 0.444404 586.329C0.22728 587.957 0.333181 589.612 0.756053 591.199C1.17893 592.787 1.91048 594.275 2.9089 595.579C3.90731 596.884 5.153 597.979 6.57478 598.801C7.99655 599.624 9.56652 600.158 11.1949 600.374C12.8234 600.589 14.4783 600.482 16.0652 600.058C17.652 599.633 19.1397 598.9 20.4431 597.901C21.7465 596.901 22.8401 595.654 23.6614 594.232C53.2995 542.928 95.917 500.327 147.232 470.709C198.548 441.091 256.754 425.499 316.004 425.5C375.253 425.5 433.459 441.093 484.774 470.712C536.089 500.331 578.706 542.932 608.343 594.236C610.005 597.102 612.737 599.19 615.938 600.043C619.139 600.896 622.547 600.443 625.415 598.784C628.282 597.125 630.374 594.396 631.23 591.196C632.087 587.996 631.638 584.587 629.983 581.718ZM128.5 213C128.5 175.916 139.497 139.665 160.099 108.831C180.702 77.9964 209.986 53.964 244.247 39.7726C278.508 25.5811 316.208 21.868 352.579 29.1027C388.951 36.3375 422.36 54.1951 448.582 80.4175C474.805 106.64 492.662 140.049 499.897 176.421C507.132 212.792 503.419 250.492 489.227 284.753C475.036 319.014 451.004 348.298 420.169 368.901C389.335 389.503 353.084 400.5 316 400.5C266.289 400.444 218.631 380.671 183.48 345.52C148.329 310.369 128.556 262.711 128.5 213Z" fill="black"/>
</svg>
